PathFileType	4	(X/Y/Z)	path1_12_0-587.trc
DataRate	CameraRate	NumFrames	NumMarkers	Units	OrigDataRate	OrigDataStartFrame	OrigNumFrames
30	30	7	22	m	30	220	587
Frame#	Time	Hip			RHip			RKnee			RAnkle			RBigToe			RSmallToe			RHeel			LHip			LKnee			LAnkle			LBigToe			LSmallToe			LHeel			Neck			Head			Nose			RShoulder			RElbow			RWrist			LShoulder			LElbow			LWrist		
		X1	Y1	Z1	X2	Y2	Z2	X3	Y3	Z3	X4	Y4	Z4	X5	Y5	Z5	X6	Y6	Z6	X7	Y7	Z7	X8	Y8	Z8	X9	Y9	Z9	X10	Y10	Z10	X11	Y11	Z11	X12	Y12	Z12	X13	Y13	Z13	X14	Y14	Z14	X15	Y15	Z15	X16	Y16	Z16	X17	Y17	Z17	X18	Y18	Z18	X19	Y19	Z19	X20	Y20	Z20	X21	Y21	Z21	X22	Y22	Z22
221	7.366666666666666	2.600492508124823	0.8411718860543818	0.5998260892117502	2.609444457999912	0.8077146082596199	0.5221878038347495	2.5904670372896055	0.4708144015880944	0.5048075149369804	2.660457193779416	0.10159278606466936	0.5248917565330395	2.4745533131519166	0.03530926342625834	0.5055023128661268	2.508680292172721	0.025217463164138778	0.4474846167630039	2.7043737281667912	0.03114819616120408	0.5311830125763338	2.5940483332744546	0.8070390502707769	0.6851371523125732	2.608408305350016	0.4427488975723041	0.6716300284313445	2.6664407422754666	0.09417219409567787	0.6906531688317247	2.5014546468594547	0.0162637144919335	0.7044258172278546	2.525260436073454	0.026425262026665043	0.7594557008017246	2.7155592459792373	0.029164475435537966	0.6915370149168112	2.5675827436464855	1.4663536573774758	0.6172307798781773	2.5223938458476844	1.713262786312733	0.5685034913612277	2.42896730894792	1.5997063040118116	0.5882043298582568	2.6254843752338326	1.369770502458123	0.447622136763583	2.6337724708379984	1.0826681195381387	0.39544499807129435	2.6125717504741788	0.8499997981074885	0.3963904316329946	2.568431199364431	1.3484192101207377	0.7804632799872979	2.6463359059642717	1.0624278685798894	0.7900289434109863	2.6339094326471155	0.8432071042267093	0.8066514024348385
222	7.4	2.6009093416380735	0.8410302108710339	0.6002337235484438	2.609308977106599	0.809119923087864	0.5223972532369793	2.5906167420884043	0.4711729464787699	0.5048182600632348	2.6584993667745036	0.10312103840690685	0.5223244180725432	2.4748602481489317	0.03556553366734107	0.506381462654227	2.5087866039602496	0.02514109795356082	0.4477877014676333	2.703626463869117	0.03180677795150521	0.5306243409661185	2.593894704967745	0.8083213156052035	0.6857715130362897	2.608152765575806	0.4434301582227483	0.6701981140400912	2.664683382933503	0.09666430276112332	0.6923283843716362	2.502661358979582	0.015678946274555544	0.7052449663239191	2.52411063521866	0.028229714479429964	0.760896522611768	2.714997886125406	0.030047001016863566	0.6912371491936503	2.567745419888475	1.4660760625873652	0.617400171507809	2.5218031348653254	1.7153087401096665	0.5644805956586046	2.4288289245497796	1.5991488688387872	0.5890064580690438	2.625071152838088	1.3703725466898045	0.4478105363188616	2.633710841431877	1.0827069712185913	0.3956990531361885	2.612777544035347	0.8500763733679929	0.3964297841710304	2.5685978958565165	1.3485412888414596	0.7805074682591068	2.646102331217581	1.0634432129176445	0.7919650149699246	2.6342201676587345	0.8428306539174977	0.8062554009567333
223	7.433333333333334	2.601175491154542	0.8408522858443547	0.6004870093201558	2.60894039900169	0.8100001290224309	0.5222181576324723	2.5908478237542822	0.4712654497233359	0.504830158305411	2.657156827663726	0.10395533437484868	0.5205477094233679	2.4751119594684625	0.03536562167770223	0.5069795146600542	2.508889503496409	0.0250100969033854	0.44805086767915214	2.7033677469559203	0.03211032249595738	0.530186223787765	2.5939041827487963	0.8088826951196701	0.6859361729789801	2.6079559259871896	0.4436954301774395	0.6693986931311299	2.662791551551832	0.09867769045910735	0.6932755671569426	2.503030884321369	0.014960335455061327	0.7055617801382338	2.5230609352078264	0.02895792155992087	0.7612638552313826	2.714035185255933	0.03055388767134849	0.6905153627763132	2.567756304796055	1.465957865691794	0.617529359435159	2.5214486342589906	1.716591111715635	0.560796264839654	2.4285833846156555	1.5987372892367082	0.5894896299424094	2.6245999522316277	1.370777758331963	0.44778173475701094	2.6335935336159793	1.0827153034838162	0.39583585815774136	2.6129385580732176	0.8502112393763128	0.39641496784400687	2.5686109345195653	1.3485004434791268	0.7804450615557733	2.645484413910553	1.0654944499705026	0.7954851200815419	2.6345592887718112	0.8424396269378552	0.8059427470155085
224	7.466666666666667	2.601239498053646	0.840653136267411	0.6005403371050969	2.6083699994483633	0.8101655499486725	0.5216169362177774	2.5911007582072765	0.4710180073404042	0.5048019203694805	2.65731580285892	0.10351222097211572	0.520731636429352	2.4751741275550607	0.03476473404413461	0.5071667971466608	2.5089901860697577	0.024830345273859744	0.4481667905043766	2.703608164477891	0.03204201645190473	0.5299047504492269	2.5940974639374015	0.8085821242260233	0.6855537243486403	2.607903504985069	0.44345428811463034	0.6690061401941302	2.6612658316747173	0.09942544681327092	0.6926575227181221	2.5026823140455936	0.013980252539051713	0.7048412722103268	2.522349595204889	0.0284082640233651	0.7603280258981706	2.713006230688748	0.030544097088260926	0.6896272902424638	2.5675198194371034	1.4660434105896378	0.6175885376611534	2.521621712779606	1.7170651267536063	0.558352079685234	2.428251687292685	1.5984927119162176	0.5897185746798675	2.624177243157241	1.3710472217906586	0.4478375389920366	2.633368962949124	1.0827432456494637	0.39591992279149923	2.6130003580662273	0.850425690345166	0.3964462362144745	2.568532095361246	1.3482648193764895	0.780303759261823	2.6447385905391005	1.0677407208455623	0.7991726898407666	2.6348591372298116	0.8420508217653657	0.8057345130128895
225	7.5	2.601067307929321	0.8404273190501965	0.6004007293089343	2.6077365155677468	0.8097175694499229	0.5207720087305876	2.5913498923917033	0.47053005402655274	0.5047573344977699	2.659358443453852	0.10164866762153099	0.5234254372582334	2.4749258451676326	0.03387603922117889	0.5070209871564151	2.509095426594603	0.024622678025246265	0.4481000861707689	2.7043458363610307	0.031651766916567556	0.5298159449353594	2.5942979482046518	0.8076360023662756	0.6847681002014697	2.60797637591945	0.44281108166338823	0.6688332450394222	2.660406236800178	0.0987200976839332	0.6905564018072909	2.501914443607547	0.012890117880533767	0.7033638354017587	2.5223821156187904	0.026558454638051926	0.7583316710552622	2.7122587166251204	0.030085355083003997	0.6889999558336041	2.5670934409398223	1.46626893865012	0.6175952774311295	2.5221182905515485	1.7168622362657335	0.5573428202348326	2.427927780527629	1.5983777842752203	0.5898924431076855	2.623818680171755	1.3711232411778334	0.4479876241865337	2.633045965497864	1.0828491217704173	0.39599846021072116	2.6129477430371857	0.8506990021533613	0.3965724719354018	2.5684001868557482	1.3478822824025387	0.7801387517298282	2.6441575661778525	1.0692504072261895	0.8014344902213328	2.6350429899533587	0.8417048639836783	0.8056095028262192
226	7.533333333333333	2.600658420035026	0.8401712896202929	0.6001350436648926	2.607243986933023	0.8088921415552285	0.5200185040309792	2.5915903373735176	0.4700086046232842	0.5047626441047672	2.6626534928175762	0.09897342019865504	0.5278479559786595	2.474265005044483	0.032843205354639964	0.5067502562466834	2.509235534271842	0.024417080218826395	0.44787973365257605	2.7055358325513703	0.031028756556769403	0.5299524885891604	2.5942819390223053	0.8064439239268757	0.6838847795770591	2.608100838160775	0.4419591190921095	0.6688417325469947	2.6603897532506737	0.09686860987137114	0.6878502784837248	2.501136583644106	0.01200651954554606	0.7019591918366004	2.52358775024254	0.023618487906245725	0.7559088960683767	2.712043204289169	0.02938113924639929	0.6890283243101369	2.5666151607430767	1.4665229299898945	0.6175939809207978	2.522381725651428	1.7160434989534412	0.5577171888296609	2.4277020331120855	1.5983803050432057	0.5901594124451494	2.6234535518369575	1.3708169111813993	0.4478681226106971	2.632671015112567	1.0830437141636198	0.39606686087848997	2.6128018482556463	0.8509359637990317	0.3967738255691218	2.568268963118252	1.3474522814390255	0.7800081928491228	2.643931854483616	1.0694491525365737	0.8013051339644837	2.635035976315123	0.8414497393980065	0.8055329269175722
227	7.566666666666666	2.6000606024305704	0.8398986470267968	0.5998088369835456	2.6071069807871137	0.8078398476430643	0.5197299309443576	2.5918103094581344	0.4696352689835332	0.5048759125759288	2.6659852577201244	0.09647048219436337	0.5323779446973165	2.473218637003411	0.031884943781711986	0.5064781071313976	2.5094426363677966	0.024237780996598346	0.4475681314430121	2.7070160728426544	0.03024851615704488	0.5303116624372664	2.5939754547578335	0.8053398356315102	0.6832427327667091	2.6082281700315058	0.44102568261371317	0.6691027093207147	2.6612881378608795	0.09436908815318473	0.6855933241184876	2.500736752022151	0.011614665236511418	0.7013839537611564	2.5256699179514643	0.020319970888951617	0.7537470100096011	2.712436529136011	0.028631389241746002	0.689860966209278	2.5661965323008182	1.4667284119290736	0.617641384363866	2.521741835995186	1.7143747387666726	0.5596390628442033	2.4276066398367	1.5985370110991206	0.5905211574533631	2.622956601619982	1.369810002100563	0.4468360090569187	2.6323099229447404	1.0832638978995122	0.39610233426602576	2.6126023975002144	0.8509988448613299	0.3969948012085541	2.568240559152693	1.3470716498764095	0.7799585881046637	2.6441288901432354	1.0681712828358734	0.7985667438683338	2.634775187832559	0.841345344929067	0.8054674515817476
